# Blender v3.2.2 OBJ File: 'faces.blend'
# www.blender.org
mtllib nose2.mtl
o nose2_Cone
v 0.735089 -0.166093 -0.163851
v 0.732916 -0.197985 -0.160703
v 0.730827 -0.228651 -0.151379
v 0.728901 -0.256914 -0.136238
v 0.727213 -0.281686 -0.115861
v 0.725828 -0.302016 -0.091031
v 0.724799 -0.317122 -0.062703
v 0.724165 -0.326425 -0.031966
v 0.723951 -0.329566 0.000000
v 0.724165 -0.326425 0.031966
v 0.724799 -0.317122 0.062703
v 0.725828 -0.302016 0.091031
v 0.727213 -0.281686 0.115861
v 0.728901 -0.256914 0.136238
v 0.730827 -0.228651 0.151379
v 0.732916 -0.197985 0.160703
v 0.735089 -0.166093 0.163851
v 0.737262 -0.134201 0.160703
v 0.739352 -0.103535 0.151379
v 0.741278 -0.075273 0.136238
v 0.742966 -0.050501 0.115861
v 0.744351 -0.030171 0.091031
v 0.745380 -0.015064 0.062703
v 0.746014 -0.005762 0.031966
v 0.746228 -0.002621 -0.000000
v 0.746014 -0.005762 -0.031966
v 0.745380 -0.015064 -0.062703
v 0.744351 -0.030171 -0.091031
v 0.742966 -0.050501 -0.115860
v 0.741278 -0.075273 -0.136238
v 0.739352 -0.103535 -0.151379
v 0.737262 -0.134201 -0.160703
v 1.266158 -0.202279 0.000000
vt 0.250000 0.490000
vt 0.250000 0.250000
vt 0.296822 0.485388
vt 0.341844 0.471731
vt 0.383337 0.449553
vt 0.419706 0.419706
vt 0.449553 0.383337
vt 0.471731 0.341844
vt 0.485388 0.296822
vt 0.490000 0.250000
vt 0.485388 0.203178
vt 0.471731 0.158156
vt 0.449553 0.116663
vt 0.419706 0.080294
vt 0.383337 0.050447
vt 0.341844 0.028269
vt 0.296822 0.014612
vt 0.250000 0.010000
vt 0.203178 0.014612
vt 0.158156 0.028269
vt 0.116663 0.050447
vt 0.080294 0.080294
vt 0.050447 0.116663
vt 0.028269 0.158156
vt 0.014612 0.203178
vt 0.010000 0.250000
vt 0.014612 0.296822
vt 0.028269 0.341844
vt 0.050447 0.383337
vt 0.080294 0.419706
vt 0.116663 0.449553
vt 0.158156 0.471731
vt 0.750000 0.490000
vt 0.796822 0.485388
vt 0.841844 0.471731
vt 0.883337 0.449553
vt 0.919706 0.419706
vt 0.949553 0.383337
vt 0.971731 0.341844
vt 0.985388 0.296822
vt 0.990000 0.250000
vt 0.985388 0.203178
vt 0.971731 0.158156
vt 0.949553 0.116663
vt 0.919706 0.080294
vt 0.883337 0.050447
vt 0.841844 0.028269
vt 0.796822 0.014612
vt 0.750000 0.010000
vt 0.703178 0.014612
vt 0.658156 0.028269
vt 0.616663 0.050447
vt 0.580294 0.080294
vt 0.550447 0.116663
vt 0.528269 0.158156
vt 0.514612 0.203178
vt 0.510000 0.250000
vt 0.514612 0.296822
vt 0.528269 0.341844
vt 0.550447 0.383337
vt 0.580294 0.419706
vt 0.616663 0.449553
vt 0.658156 0.471731
vt 0.703178 0.485388
vt 0.203178 0.485388
vn 0.2859 -0.1134 -0.9515
vn 0.2734 -0.2968 -0.9150
vn 0.2616 -0.4696 -0.8432
vn 0.2510 -0.6251 -0.7391
vn 0.2420 -0.7573 -0.6066
vn 0.2349 -0.8612 -0.4507
vn 0.2300 -0.9328 -0.2776
vn 0.2275 -0.9692 -0.0937
vn 0.2275 -0.9692 0.0937
vn 0.2300 -0.9328 0.2776
vn 0.2349 -0.8612 0.4507
vn 0.2420 -0.7573 0.6066
vn 0.2510 -0.6251 0.7391
vn 0.2616 -0.4696 0.8432
vn 0.2734 -0.2968 0.9150
vn 0.2859 -0.1134 0.9515
vn 0.2986 0.0736 0.9515
vn 0.3111 0.2570 0.9150
vn 0.3229 0.4298 0.8432
vn 0.3335 0.5853 0.7391
vn 0.3425 0.7175 0.6066
vn 0.3495 0.8214 0.4507
vn 0.3544 0.8929 0.2776
vn 0.3569 0.9294 0.0937
vn 0.3569 0.9294 -0.0937
vn 0.3544 0.8929 -0.2776
vn 0.3495 0.8214 -0.4507
vn 0.3425 0.7175 -0.6066
vn 0.3335 0.5853 -0.7391
vn 0.3229 0.4298 -0.8432
vn -0.9977 0.0680 0.0000
vn 0.3111 0.2570 -0.9150
vn 0.2986 0.0736 -0.9515
usemtl Material.008
s off
f 1/1/1 33/2/1 2/3/1
f 2/3/2 33/2/2 3/4/2
f 3/4/3 33/2/3 4/5/3
f 4/5/4 33/2/4 5/6/4
f 5/6/5 33/2/5 6/7/5
f 6/7/6 33/2/6 7/8/6
f 7/8/7 33/2/7 8/9/7
f 8/9/8 33/2/8 9/10/8
f 9/10/9 33/2/9 10/11/9
f 10/11/10 33/2/10 11/12/10
f 11/12/11 33/2/11 12/13/11
f 12/13/12 33/2/12 13/14/12
f 13/14/13 33/2/13 14/15/13
f 14/15/14 33/2/14 15/16/14
f 15/16/15 33/2/15 16/17/15
f 16/17/16 33/2/16 17/18/16
f 17/18/17 33/2/17 18/19/17
f 18/19/18 33/2/18 19/20/18
f 19/20/19 33/2/19 20/21/19
f 20/21/20 33/2/20 21/22/20
f 21/22/21 33/2/21 22/23/21
f 22/23/22 33/2/22 23/24/22
f 23/24/23 33/2/23 24/25/23
f 24/25/24 33/2/24 25/26/24
f 25/26/25 33/2/25 26/27/25
f 26/27/26 33/2/26 27/28/26
f 27/28/27 33/2/27 28/29/27
f 28/29/28 33/2/28 29/30/28
f 29/30/29 33/2/29 30/31/29
f 30/31/30 33/2/30 31/32/30
f 1/33/31 2/34/31 3/35/31 4/36/31 5/37/31 6/38/31 7/39/31 8/40/31 9/41/31 10/42/31 11/43/31 12/44/31 13/45/31 14/46/31 15/47/31 16/48/31 17/49/31 18/50/31 19/51/31 20/52/31 21/53/31 22/54/31 23/55/31 24/56/31 25/57/31 26/58/31 27/59/31 28/60/31 29/61/31 30/62/31 31/63/31 32/64/31
f 31/32/32 33/2/32 32/65/32
f 32/65/33 33/2/33 1/1/33
